# xmcd
#
# Track frame offsets:
#	150
#	3775
#	8358
#	29483
#	34090
#	75776
#	89111
#	126266
#	139356
#	188930
#	218700
#
# Disc length: 3542 seconds
#
# Revision: 1
# Processed by: cddbd v1.4PL0 Copyright (c) Steve Scherf et al.
# Submitted via: audiograbber 1.81.02
#
DISCID=850dd40b
DTITLE=Youp van 't Hek - Alles of nooit CD 2
DYEAR=1900
DGENRE=
TTITLE0=Openingsmuziek
TTITLE1=Centraal Station
TTITLE2=Zoon van God
TTITLE3=Alles of nooit
TTITLE4=OV-jaarkaart
TTITLE5=Supermarkt
TTITLE6=God zelf
TTITLE7=De klok
TTITLE8=Handel
TTITLE9=Autotelefoon
TTITLE10=Wintersport
EXTD=
EXTT0=
EXTT1=
EXTT2=
EXTT3=
EXTT4=
EXTT5=
EXTT6=
EXTT7=
EXTT8=
EXTT9=
EXTT10=
PLAYORDER=
